<?xml version="1.0" encoding="UTF-8" standalone="no"?><!DOCTYPE svg PUBLIC "-//W3C//DTD SVG 1.1//EN" "http://www.w3.org/Graphics/SVG/1.1/DTD/svg11.dtd"><svg width="100%" height="100%" viewBox="0 0 64 36" version="1.1" xmlns="http://www.w3.org/2000/svg" xmlns:xlink="http://www.w3.org/1999/xlink" xml:space="preserve" xmlns:serif="http://www.serif.com/" style="fill-rule:evenodd;clip-rule:evenodd;stroke-linejoin:round;stroke-miterlimit:1.41421;"><g><path d="M46.683,30.949c-6.959,-2.798 -15.596,-3.709 -23.995,-1.241c5.919,-8.61 13.702,-14.65 23.252,-21.334c1.169,7.274 2.371,14.431 0.748,22.575" style="fill:#505050;"/><path d="M46.683,30.949c6.776,-4.34 11.927,-5.033 17.317,-4.176c-2.892,-8.681 -10.14,-16.143 -18.06,-18.399c1.169,7.274 2.371,14.431 0.748,22.575" style="fill:#646464;"/><path d="M45.94,8.374c-17.933,4.828 -33.131,13.769 -45.94,26.3c6.949,-3.962 14.331,-6.678 22.688,-4.966c5.919,-8.61 13.702,-14.65 23.252,-21.334" style="fill:#646464;"/><path d="M46.467,7.14c9.848,3.681 15.989,10.996 17.533,19.702c-2.825,-6.215 -7.734,-14.656 -18.06,-18.468l0.527,-1.234Z"/><path d="M45.94,8.374l0.527,-1.245l-6.953,-6.137l3.193,7.017c-23.599,7.718 -38.576,19.542 -42.707,26.665c13.76,-11.881 28.834,-21.135 45.94,-26.3Z"/><path d="M22.688,29.716c11.729,-13.241 23.779,-21.342 23.779,-21.342l0,-1.234c0,0 -21.409,15.911 -23.779,22.576Z"/><path d="M45.94,8.374c0,0 0.879,15.818 0.752,22.575c2.126,-6.542 -0.225,-23.809 -0.225,-23.809l-0.527,1.234Z"/></g></svg>