<?xml version="1.0" standalone="no"?><!DOCTYPE svg PUBLIC "-//W3C//DTD SVG 1.1//EN" "http://www.w3.org/Graphics/SVG/1.1/DTD/svg11.dtd"><svg t="1542954652144" class="icon" style="" viewBox="0 0 1024 1024" version="1.1" xmlns="http://www.w3.org/2000/svg" p-id="6384" xmlns:xlink="http://www.w3.org/1999/xlink" width="64" height="64"><defs><style type="text/css"></style></defs><path d="M883.569644 216.449727 518.847965 100.012831c-11.911284-3.802606-24.725124-3.741207-36.599569 0.174985L137.857764 213.761502c-9.614985 3.323699-10.023284 16.739243-0.626263 20.637016l338.278423 134.330428c32.026414 12.717649 67.763336 12.459776 99.602486-0.718361L884.554064 239.927441C895.342782 235.461733 894.694005 220.0006 883.569644 216.449727z" p-id="6385"></path><path d="M509.385453 844.550978l-23.63121-376.597147c-1.308809-20.846794-14.302751-39.163975-33.55728-47.300282L126.33636 282.950304c-12.662391-5.350868-26.208918 5.485945-23.754007 19.001773l57.512878 316.618101c4.759397 26.200732 20.317745 49.198515 42.877553 63.377446l281.879925 177.161932C495.912603 866.060875 510.202051 857.579713 509.385453 844.550978z" p-id="6386"></path><path d="M869.670076 293.332768 599.802742 415.130765c-31.895431 15.245216-52.191686 47.40773-52.191686 82.70156l-1.388627 343.04703c0 17.519002 19.583011 27.949562 34.166147 18.199501L870.937952 651.65469c17.651009-14.915711 22.405289-29.918403 24.795732-51.90516l25.02393-269.492804C926.508595 278.543947 905.735479 275.523147 869.670076 293.332768z" p-id="6387"></path></svg>