<?xml version="1.0" standalone="no"?><!DOCTYPE svg PUBLIC "-//W3C//DTD SVG 1.1//EN" "http://www.w3.org/Graphics/SVG/1.1/DTD/svg11.dtd"><svg t="1542022581776" class="icon" style="" viewBox="0 0 1024 1024" version="1.1" xmlns="http://www.w3.org/2000/svg" p-id="2636" xmlns:xlink="http://www.w3.org/1999/xlink" width="64" height="64"><defs><style type="text/css"></style></defs><path d="M919.608889 447.203556l-75.377778-12.572444c-8.704-37.376-23.495111-72.362667-43.349333-103.879111l41.984-58.766222c15.985778-22.414222 13.482667-53.134222-5.973333-72.590222l-12.174222-12.174222c-19.456-19.456-50.176-22.016-72.590222-5.973333l-58.766222 41.984c-31.573333-19.854222-66.503111-34.645333-103.879111-43.349333l-12.572444-75.377778c-4.551111-27.420444-28.330667-47.559111-56.092444-47.559111l-17.408 0c-27.818667 0-51.541333 20.081778-56.092444 47.559111l-12.572444 75.377778c-37.376 8.704-72.305778 23.495111-103.879111 43.349333l-58.766222-41.984c-22.414222-15.985778-53.134222-13.482667-72.590222 5.973333l-12.174222 12.174222c-19.456 19.512889-22.016 50.176-5.973333 72.590222l41.984 58.766222c-19.854222 31.573333-34.645333 66.503111-43.349333 103.879111l-75.377778 12.572444c-27.420444 4.608-47.559111 28.330667-47.559111 56.149333l0 17.408c0 27.818667 20.081778 51.541333 47.502222 56.092444l75.377778 12.572444c8.704 37.376 23.495111 72.362667 43.349333 103.879111l-41.984 58.766222c-15.985778 22.414222-13.482667 53.134222 5.973333 72.590222l12.174222 12.174222c19.456 19.456 50.176 22.016 72.590222 5.973333l58.766222-41.984c31.573333 19.854222 66.503111 34.645333 103.879111 43.349333l12.572444 75.377778c4.551111 27.420444 28.330667 47.559111 56.092444 47.559111l17.408 0c27.818667 0 51.541333-20.081778 56.092444-47.559111l12.572444-75.377778c37.376-8.704 72.305778-23.495111 103.879111-43.349333l58.766222 41.984c22.414222 15.985778 53.134222 13.482667 72.590222-5.973333l12.174222-12.174222c19.456-19.512889 22.016-50.176 5.973333-72.590222l-41.984-58.766222c19.854222-31.573333 34.645333-66.503111 43.349333-103.879111l75.377778-12.572444c27.420444-4.551111 47.502222-28.330667 47.502222-56.092444l0-17.408c0-27.818667-20.081778-51.541333-47.502222-56.149333zM512 682.666667c-94.264889 0-170.666667-76.401778-170.666667-170.666667s76.401778-170.666667 170.666667-170.666667 170.666667 76.401778 170.666667 170.666667-76.401778 170.666667-170.666667 170.666667z" p-id="2637"></path></svg>