<?xml version="1.0" encoding="UTF-8" standalone="no"?><!DOCTYPE svg PUBLIC "-//W3C//DTD SVG 1.1//EN" "http://www.w3.org/Graphics/SVG/1.1/DTD/svg11.dtd"><svg width="100%" height="100%" viewBox="0 0 65 65" version="1.1" xmlns="http://www.w3.org/2000/svg" xmlns:xlink="http://www.w3.org/1999/xlink" xml:space="preserve" xmlns:serif="http://www.serif.com/" style="fill-rule:evenodd;clip-rule:evenodd;stroke-linejoin:round;stroke-miterlimit:1.41421;"><rect id="Container" x="0.611" y="0.063" width="64" height="64" style="fill:none;"/><clipPath id="_clip1"><rect x="0.611" y="0.063" width="64" height="64"/></clipPath><g clip-path="url(#_clip1)"><g><path d="M61.761,44.563c1.573,0 2.85,1.277 2.85,2.85l0,13.3c0,1.573 -1.277,2.85 -2.85,2.85l-58.3,0c-1.573,0 -2.85,-1.277 -2.85,-2.85l0,-13.3c0,-1.573 1.277,-2.85 2.85,-2.85l58.3,0Zm-3.95,11.5l-1.4,0c-0.165,0 -0.3,0.134 -0.3,0.3l0,1.4c0,0.165 0.135,0.3 0.3,0.3l1.4,0c0.166,0 0.3,-0.135 0.3,-0.3l0,-1.4c0,-0.166 -0.134,-0.3 -0.3,-0.3Zm-22.25,0l-1.4,0c-0.165,0 -0.3,0.134 -0.3,0.3l0,1.4c0,0.165 0.135,0.3 0.3,0.3l1.4,0c0.166,0 0.3,-0.135 0.3,-0.3l0,-1.4c0,-0.166 -0.134,-0.3 -0.3,-0.3Zm4.45,0l-1.4,0c-0.165,0 -0.3,0.134 -0.3,0.3l0,1.4c0,0.165 0.135,0.3 0.3,0.3l1.4,0c0.166,0 0.3,-0.135 0.3,-0.3l0,-1.4c0,-0.166 -0.134,-0.3 -0.3,-0.3Zm4.45,0l-1.4,0c-0.165,0 -0.3,0.134 -0.3,0.3l0,1.4c0,0.165 0.135,0.3 0.3,0.3l1.4,0c0.166,0 0.3,-0.135 0.3,-0.3l0,-1.4c0,-0.166 -0.134,-0.3 -0.3,-0.3Zm4.45,0l-1.4,0c-0.165,0 -0.3,0.134 -0.3,0.3l0,1.4c0,0.165 0.135,0.3 0.3,0.3l1.4,0c0.166,0 0.3,-0.135 0.3,-0.3l0,-1.4c0,-0.166 -0.134,-0.3 -0.3,-0.3Zm4.45,0l-1.4,0c-0.165,0 -0.3,0.134 -0.3,0.3l0,1.4c0,0.165 0.135,0.3 0.3,0.3l1.4,0c0.166,0 0.3,-0.135 0.3,-0.3l0,-1.4c0,-0.166 -0.134,-0.3 -0.3,-0.3Zm-40.65,-5l-4.2,0c-0.496,0 -0.9,0.403 -0.9,0.9l0,4.2c0,0.496 0.404,0.9 0.9,0.9l4.2,0c0.497,0 0.9,-0.404 0.9,-0.9l0,-4.2c0,-0.497 -0.403,-0.9 -0.9,-0.9Zm45.1,-1l-1.4,0c-0.165,0 -0.3,0.134 -0.3,0.3l0,1.4c0,0.165 0.135,0.3 0.3,0.3l1.4,0c0.166,0 0.3,-0.135 0.3,-0.3l0,-1.4c0,-0.166 -0.134,-0.3 -0.3,-0.3Zm-22.25,0l-1.4,0c-0.165,0 -0.3,0.134 -0.3,0.3l0,1.4c0,0.165 0.135,0.3 0.3,0.3l1.4,0c0.166,0 0.3,-0.135 0.3,-0.3l0,-1.4c0,-0.166 -0.134,-0.3 -0.3,-0.3Zm4.45,0l-1.4,0c-0.165,0 -0.3,0.134 -0.3,0.3l0,1.4c0,0.165 0.135,0.3 0.3,0.3l1.4,0c0.166,0 0.3,-0.135 0.3,-0.3l0,-1.4c0,-0.166 -0.134,-0.3 -0.3,-0.3Zm4.45,0l-1.4,0c-0.165,0 -0.3,0.134 -0.3,0.3l0,1.4c0,0.165 0.135,0.3 0.3,0.3l1.4,0c0.166,0 0.3,-0.135 0.3,-0.3l0,-1.4c0,-0.166 -0.134,-0.3 -0.3,-0.3Zm4.45,0l-1.4,0c-0.165,0 -0.3,0.134 -0.3,0.3l0,1.4c0,0.165 0.135,0.3 0.3,0.3l1.4,0c0.166,0 0.3,-0.135 0.3,-0.3l0,-1.4c0,-0.166 -0.134,-0.3 -0.3,-0.3Zm4.45,0l-1.4,0c-0.165,0 -0.3,0.134 -0.3,0.3l0,1.4c0,0.165 0.135,0.3 0.3,0.3l1.4,0c0.166,0 0.3,-0.135 0.3,-0.3l0,-1.4c0,-0.166 -0.134,-0.3 -0.3,-0.3Z"/><path d="M61.761,22.313c1.573,0 2.85,1.277 2.85,2.85l0,13.3c0,1.573 -1.277,2.85 -2.85,2.85l-58.3,0c-1.573,0 -2.85,-1.277 -2.85,-2.85l0,-13.3c0,-1.573 1.277,-2.85 2.85,-2.85l58.3,0Zm-3.95,11.5l-1.4,0c-0.165,0 -0.3,0.134 -0.3,0.3l0,1.4c0,0.165 0.135,0.3 0.3,0.3l1.4,0c0.166,0 0.3,-0.135 0.3,-0.3l0,-1.4c0,-0.166 -0.134,-0.3 -0.3,-0.3Zm-22.25,0l-1.4,0c-0.165,0 -0.3,0.134 -0.3,0.3l0,1.4c0,0.165 0.135,0.3 0.3,0.3l1.4,0c0.166,0 0.3,-0.135 0.3,-0.3l0,-1.4c0,-0.166 -0.134,-0.3 -0.3,-0.3Zm4.45,0l-1.4,0c-0.165,0 -0.3,0.134 -0.3,0.3l0,1.4c0,0.165 0.135,0.3 0.3,0.3l1.4,0c0.166,0 0.3,-0.135 0.3,-0.3l0,-1.4c0,-0.166 -0.134,-0.3 -0.3,-0.3Zm4.45,0l-1.4,0c-0.165,0 -0.3,0.134 -0.3,0.3l0,1.4c0,0.165 0.135,0.3 0.3,0.3l1.4,0c0.166,0 0.3,-0.135 0.3,-0.3l0,-1.4c0,-0.166 -0.134,-0.3 -0.3,-0.3Zm4.45,0l-1.4,0c-0.165,0 -0.3,0.134 -0.3,0.3l0,1.4c0,0.165 0.135,0.3 0.3,0.3l1.4,0c0.166,0 0.3,-0.135 0.3,-0.3l0,-1.4c0,-0.166 -0.134,-0.3 -0.3,-0.3Zm4.45,0l-1.4,0c-0.165,0 -0.3,0.134 -0.3,0.3l0,1.4c0,0.165 0.135,0.3 0.3,0.3l1.4,0c0.166,0 0.3,-0.135 0.3,-0.3l0,-1.4c0,-0.166 -0.134,-0.3 -0.3,-0.3Zm-40.65,-5l-4.2,0c-0.496,0 -0.9,0.403 -0.9,0.9l0,4.2c0,0.496 0.404,0.9 0.9,0.9l4.2,0c0.497,0 0.9,-0.404 0.9,-0.9l0,-4.2c0,-0.497 -0.403,-0.9 -0.9,-0.9Zm45.1,-1l-1.4,0c-0.165,0 -0.3,0.134 -0.3,0.3l0,1.4c0,0.165 0.135,0.3 0.3,0.3l1.4,0c0.166,0 0.3,-0.135 0.3,-0.3l0,-1.4c0,-0.166 -0.134,-0.3 -0.3,-0.3Zm-22.25,0l-1.4,0c-0.165,0 -0.3,0.134 -0.3,0.3l0,1.4c0,0.165 0.135,0.3 0.3,0.3l1.4,0c0.166,0 0.3,-0.135 0.3,-0.3l0,-1.4c0,-0.166 -0.134,-0.3 -0.3,-0.3Zm4.45,0l-1.4,0c-0.165,0 -0.3,0.134 -0.3,0.3l0,1.4c0,0.165 0.135,0.3 0.3,0.3l1.4,0c0.166,0 0.3,-0.135 0.3,-0.3l0,-1.4c0,-0.166 -0.134,-0.3 -0.3,-0.3Zm4.45,0l-1.4,0c-0.165,0 -0.3,0.134 -0.3,0.3l0,1.4c0,0.165 0.135,0.3 0.3,0.3l1.4,0c0.166,0 0.3,-0.135 0.3,-0.3l0,-1.4c0,-0.166 -0.134,-0.3 -0.3,-0.3Zm4.45,0l-1.4,0c-0.165,0 -0.3,0.134 -0.3,0.3l0,1.4c0,0.165 0.135,0.3 0.3,0.3l1.4,0c0.166,0 0.3,-0.135 0.3,-0.3l0,-1.4c0,-0.166 -0.134,-0.3 -0.3,-0.3Zm4.45,0l-1.4,0c-0.165,0 -0.3,0.134 -0.3,0.3l0,1.4c0,0.165 0.135,0.3 0.3,0.3l1.4,0c0.166,0 0.3,-0.135 0.3,-0.3l0,-1.4c0,-0.166 -0.134,-0.3 -0.3,-0.3Z"/><path d="M61.761,0.063c1.573,0 2.85,1.277 2.85,2.85l0,13.3c0,1.573 -1.277,2.85 -2.85,2.85l-58.3,0c-1.573,0 -2.85,-1.277 -2.85,-2.85l0,-13.3c0,-1.573 1.277,-2.85 2.85,-2.85l58.3,0Zm-3.95,11.5l-1.4,0c-0.165,0 -0.3,0.134 -0.3,0.3l0,1.4c0,0.165 0.135,0.3 0.3,0.3l1.4,0c0.166,0 0.3,-0.135 0.3,-0.3l0,-1.4c0,-0.166 -0.134,-0.3 -0.3,-0.3Zm-22.25,0l-1.4,0c-0.165,0 -0.3,0.134 -0.3,0.3l0,1.4c0,0.165 0.135,0.3 0.3,0.3l1.4,0c0.166,0 0.3,-0.135 0.3,-0.3l0,-1.4c0,-0.166 -0.134,-0.3 -0.3,-0.3Zm4.45,0l-1.4,0c-0.165,0 -0.3,0.134 -0.3,0.3l0,1.4c0,0.165 0.135,0.3 0.3,0.3l1.4,0c0.166,0 0.3,-0.135 0.3,-0.3l0,-1.4c0,-0.166 -0.134,-0.3 -0.3,-0.3Zm4.45,0l-1.4,0c-0.165,0 -0.3,0.134 -0.3,0.3l0,1.4c0,0.165 0.135,0.3 0.3,0.3l1.4,0c0.166,0 0.3,-0.135 0.3,-0.3l0,-1.4c0,-0.166 -0.134,-0.3 -0.3,-0.3Zm4.45,0l-1.4,0c-0.165,0 -0.3,0.134 -0.3,0.3l0,1.4c0,0.165 0.135,0.3 0.3,0.3l1.4,0c0.166,0 0.3,-0.135 0.3,-0.3l0,-1.4c0,-0.166 -0.134,-0.3 -0.3,-0.3Zm4.45,0l-1.4,0c-0.165,0 -0.3,0.134 -0.3,0.3l0,1.4c0,0.165 0.135,0.3 0.3,0.3l1.4,0c0.166,0 0.3,-0.135 0.3,-0.3l0,-1.4c0,-0.166 -0.134,-0.3 -0.3,-0.3Zm-40.65,-5l-4.2,0c-0.496,0 -0.9,0.403 -0.9,0.9l0,4.2c0,0.496 0.404,0.9 0.9,0.9l4.2,0c0.497,0 0.9,-0.404 0.9,-0.9l0,-4.2c0,-0.497 -0.403,-0.9 -0.9,-0.9Zm45.1,-1l-1.4,0c-0.165,0 -0.3,0.134 -0.3,0.3l0,1.4c0,0.165 0.135,0.3 0.3,0.3l1.4,0c0.166,0 0.3,-0.135 0.3,-0.3l0,-1.4c0,-0.166 -0.134,-0.3 -0.3,-0.3Zm-22.25,0l-1.4,0c-0.165,0 -0.3,0.134 -0.3,0.3l0,1.4c0,0.165 0.135,0.3 0.3,0.3l1.4,0c0.166,0 0.3,-0.135 0.3,-0.3l0,-1.4c0,-0.166 -0.134,-0.3 -0.3,-0.3Zm4.45,0l-1.4,0c-0.165,0 -0.3,0.134 -0.3,0.3l0,1.4c0,0.165 0.135,0.3 0.3,0.3l1.4,0c0.166,0 0.3,-0.135 0.3,-0.3l0,-1.4c0,-0.166 -0.134,-0.3 -0.3,-0.3Zm4.45,0l-1.4,0c-0.165,0 -0.3,0.134 -0.3,0.3l0,1.4c0,0.165 0.135,0.3 0.3,0.3l1.4,0c0.166,0 0.3,-0.135 0.3,-0.3l0,-1.4c0,-0.166 -0.134,-0.3 -0.3,-0.3Zm4.45,0l-1.4,0c-0.165,0 -0.3,0.134 -0.3,0.3l0,1.4c0,0.165 0.135,0.3 0.3,0.3l1.4,0c0.166,0 0.3,-0.135 0.3,-0.3l0,-1.4c0,-0.166 -0.134,-0.3 -0.3,-0.3Zm4.45,0l-1.4,0c-0.165,0 -0.3,0.134 -0.3,0.3l0,1.4c0,0.165 0.135,0.3 0.3,0.3l1.4,0c0.166,0 0.3,-0.135 0.3,-0.3l0,-1.4c0,-0.166 -0.134,-0.3 -0.3,-0.3Z"/></g></g></svg>