<?xml version="1.0" encoding="UTF-8" standalone="no"?><!DOCTYPE svg PUBLIC "-//W3C//DTD SVG 1.1//EN" "http://www.w3.org/Graphics/SVG/1.1/DTD/svg11.dtd"><svg width="100%" height="100%" viewBox="0 0 65 64" version="1.1" xmlns="http://www.w3.org/2000/svg" xmlns:xlink="http://www.w3.org/1999/xlink" xml:space="preserve" xmlns:serif="http://www.serif.com/" style="fill-rule:evenodd;clip-rule:evenodd;stroke-linejoin:round;stroke-miterlimit:1.41421;"><rect id="Core" x="0.774" y="0" width="64" height="64" style="fill:none;"/><clipPath id="_clip1"><rect x="0.774" y="0" width="64" height="64"/></clipPath><g clip-path="url(#_clip1)"><g><path d="M52.521,9.109c1.794,0 3.25,1.457 3.25,3.251l0,39.339c0,1.794 -1.456,3.25 -3.25,3.25l-39.339,0c-1.794,0 -3.251,-1.456 -3.251,-3.25l0,-39.339c0,-1.794 1.457,-3.251 3.251,-3.251l39.339,0Zm-5.8,6.759l-27.739,0c-1.265,0 -2.292,1.027 -2.292,2.292l0,27.739c0,1.265 1.027,2.292 2.292,2.292l27.739,0c1.265,0 2.292,-1.027 2.292,-2.292l0,-27.739c0,-1.265 -1.027,-2.292 -2.292,-2.292Z"/><path d="M42.108,25.55c0,-1.533 -1.245,-2.777 -2.777,-2.777l-12.959,0c-1.533,0 -2.777,1.244 -2.777,2.777l0,12.959c0,1.532 1.244,2.777 2.777,2.777l12.959,0c1.532,0 2.777,-1.245 2.777,-2.777l0,-12.959Z"/><g><g><path d="M1.677,43.484c-0.498,0 -0.903,0.405 -0.903,0.903l0,2.708c0,0.498 0.405,0.902 0.903,0.902l8.207,0l0,-4.513l-8.207,0Z"/></g><g><path d="M1.677,34.316c-0.498,0 -0.903,0.405 -0.903,0.903l0,2.708c0,0.498 0.405,0.902 0.903,0.902l8.207,0l0,-4.513l-8.207,0Z"/></g><g><path d="M1.677,25.266c-0.498,0 -0.903,0.404 -0.903,0.902l0,2.708c0,0.498 0.405,0.903 0.903,0.903l8.207,0l0,-4.513l-8.207,0Z"/></g><g><path d="M1.677,16.098c-0.498,0 -0.903,0.404 -0.903,0.902l0,2.708c0,0.498 0.405,0.903 0.903,0.903l8.207,0l0,-4.513l-8.207,0Z"/></g></g><g><g><path d="M63.872,43.484c0.498,0 0.902,0.405 0.902,0.903l0,2.708c0,0.498 -0.404,0.902 -0.902,0.902l-8.207,0l0,-4.513l8.207,0Z"/></g><g><path d="M63.872,34.316c0.498,0 0.902,0.405 0.902,0.903l0,2.708c0,0.498 -0.404,0.902 -0.902,0.902l-8.207,0l0,-4.513l8.207,0Z"/></g><g><path d="M63.872,25.266c0.498,0 0.902,0.404 0.902,0.902l0,2.708c0,0.498 -0.404,0.903 -0.902,0.903l-8.207,0l0,-4.513l8.207,0Z"/></g><g><path d="M63.872,16.098c0.498,0 0.902,0.404 0.902,0.902l0,2.708c0,0.498 -0.404,0.903 -0.902,0.903l-8.207,0l0,-4.513l8.207,0Z"/></g></g><g><g><path d="M44.288,0.903c0,-0.499 0.404,-0.903 0.903,-0.903l2.708,0c0.498,0 0.902,0.404 0.902,0.903l0,8.206l-4.513,0l0,-8.206Z"/></g><g><path d="M35.12,0.903c0,-0.499 0.404,-0.903 0.903,-0.903l2.708,0c0.498,0 0.902,0.404 0.902,0.903l0,8.206l-4.513,0l0,-8.206Z"/></g><g><path d="M26.069,0.903c0,-0.499 0.405,-0.903 0.903,-0.903l2.708,0c0.498,0 0.903,0.404 0.903,0.903l0,8.206l-4.514,0l0,-8.206Z"/></g><g><path d="M16.901,0.903c0,-0.499 0.405,-0.903 0.903,-0.903l2.708,0c0.498,0 0.903,0.404 0.903,0.903l0,8.206l-4.514,0l0,-8.206Z"/></g></g><g><g><path d="M44.288,63.097c0,0.499 0.404,0.903 0.903,0.903l2.708,0c0.498,0 0.902,-0.404 0.902,-0.903l0,-8.206l-4.513,0l0,8.206Z"/></g><g><path d="M35.12,63.097c0,0.499 0.404,0.903 0.903,0.903l2.708,0c0.498,0 0.902,-0.404 0.902,-0.903l0,-8.206l-4.513,0l0,8.206Z"/></g><g><path d="M26.069,63.097c0,0.499 0.405,0.903 0.903,0.903l2.708,0c0.498,0 0.903,-0.404 0.903,-0.903l0,-8.206l-4.514,0l0,8.206Z"/></g><g><path d="M16.901,63.097c0,0.499 0.405,0.903 0.903,0.903l2.708,0c0.498,0 0.903,-0.404 0.903,-0.903l0,-8.206l-4.514,0l0,8.206Z"/></g></g></g></g></svg>