<?xml version="1.0" encoding="UTF-8" standalone="no"?><!DOCTYPE svg PUBLIC "-//W3C//DTD SVG 1.1//EN" "http://www.w3.org/Graphics/SVG/1.1/DTD/svg11.dtd"><svg width="100%" height="100%" viewBox="0 0 65 65" version="1.1" xmlns="http://www.w3.org/2000/svg" xmlns:xlink="http://www.w3.org/1999/xlink" xml:space="preserve" xmlns:serif="http://www.serif.com/" style="fill-rule:evenodd;clip-rule:evenodd;stroke-linejoin:round;stroke-miterlimit:1.41421;"><rect id="Docker" x="0.688" y="0.58" width="64" height="64" style="fill:none;"/><path d="M1.688,32.632c3.887,-0.756 38.761,0.463 46.432,-0.052c1.469,-0.099 2.219,-0.411 2.211,-1.086c-0.015,-1.231 -2.843,-5.072 1.357,-11.862c2.366,2.186 4.087,4.815 5,8c2.988,-1.096 5.768,-0.667 8,1c-2.251,4.615 -5.647,5.921 -10,5c-3.856,11.834 -12.81,18.531 -26,20.897c-11.336,2.033 -28.902,-4.244 -27,-21.897Zm12.783,6.363c1.699,0 3.077,1.379 3.077,3.077c0,1.698 -1.378,3.077 -3.077,3.077c-1.698,0 -3.077,-1.379 -3.077,-3.077c0,-1.698 1.379,-3.077 3.077,-3.077Zm0,0.68c1.324,0 2.398,1.074 2.398,2.397c0,1.323 -1.074,2.398 -2.398,2.398c-1.323,0 -2.397,-1.075 -2.397,-2.398c0,-1.323 1.074,-2.397 2.397,-2.397Zm-3.271,-8.676l-6.04,0l0,-5.956l6.04,0l0,5.956Zm8.053,0l-6.04,0l0,-5.956l6.04,0l0,5.956Zm7.97,0l-6.04,0l0,-5.956l6.04,0l0,5.956Zm7.885,0l-6.04,0l0,-5.956l6.04,0l0,5.956Zm8.138,0l-6.04,0l0,-5.956l6.04,0l0,5.956Zm-23.993,-7.97l-6.04,0l0,-5.956l6.04,0l0,5.956Zm7.97,0l-6.04,0l0,-5.956l6.04,0l0,5.956Zm7.885,0l-6.04,0l0,-5.956l6.04,0l0,5.956Zm0,-7.885l-6.04,0l0,-5.957l6.04,0l0,5.957Z"/></svg>