<?xml version="1.0" standalone="no"?><!DOCTYPE svg PUBLIC "-//W3C//DTD SVG 1.1//EN" "http://www.w3.org/Graphics/SVG/1.1/DTD/svg11.dtd"><svg t="1542022502127" class="icon" style="" viewBox="0 0 1024 1024" version="1.1" xmlns="http://www.w3.org/2000/svg" p-id="1176" xmlns:xlink="http://www.w3.org/1999/xlink" width="64" height="64"><defs><style type="text/css"></style></defs><path d="M109.44 64l222.592 277.888a128 128 0 0 1 28.16 80v404.672l256 133.12V425.28a128 128 0 0 1 35.712-88.704L913.856 64H109.44z m0-64h804.416a64 64 0 0 1 46.08 108.352l-261.888 272.512a64 64 0 0 0-17.92 44.352v534.528a64 64 0 0 1-93.44 56.768l-256-133.12a64 64 0 0 1-34.56-56.832V421.888a64 64 0 0 0-14.016-40L59.52 104A64 64 0 0 1 109.44 0z" p-id="1177"></path></svg>