<?xml version="1.0" standalone="no"?><!DOCTYPE svg PUBLIC "-//W3C//DTD SVG 1.1//EN" "http://www.w3.org/Graphics/SVG/1.1/DTD/svg11.dtd"><svg t="1543053626291" class="icon" style="" viewBox="0 0 1024 1024" version="1.1" xmlns="http://www.w3.org/2000/svg" p-id="7811" xmlns:xlink="http://www.w3.org/1999/xlink" width="64" height="64"><defs><style type="text/css"></style></defs><path d="M512 53.063111C258.929778 53.063111 53.048889 258.944 53.048889 512S258.929778 970.951111 512 970.951111c253.056 0 458.951111-205.895111 458.951111-458.951111S765.056 53.063111 512 53.063111z m0 860.999111C290.304 914.062222 109.937778 733.696 109.937778 512 109.937778 290.318222 290.304 109.952 512 109.952S914.062222 290.318222 914.062222 512c0 221.696-180.366222 402.062222-402.062222 402.062222z" p-id="7812"></path><path d="M512 405.034667c-58.979556 0-106.951111 47.971556-106.951111 106.951111 0 58.979556 47.985778 106.965333 106.951111 106.965333 58.965333 0 106.951111-47.971556 106.951111-106.965333 0-58.979556-47.985778-106.951111-106.951111-106.951111z m0 157.027555A50.104889 50.104889 0 0 1 461.937778 512 50.119111 50.119111 0 0 1 512 461.937778 50.133333 50.133333 0 0 1 562.062222 512 50.133333 50.133333 0 0 1 512 562.062222zM180.522667 544.597333c7.850667 0 13.895111-8.277333 13.539555-16.156444-0.227556-4.977778-0.341333-11.235556-0.341333-16.270222a14.08 14.08 0 0 0-14.222222-14.051556c-7.864889 0-14.222222 6.684444-14.222223 14.549333 0 5.475556 0.113778 11.605333 0.369778 17.024 0.355556 7.608889 6.641778 14.890667 14.193778 14.890667l0.682667 0.014222zM355.242667 789.105778c-83.512889-47.388444-140.714667-128.554667-156.942223-222.748445a14.208 14.208 0 1 0-28.017777 4.849778c17.692444 102.599111 79.985778 191.047111 170.951111 242.659556a14.179556 14.179556 0 0 0 19.370666-5.361778 14.236444 14.236444 0 0 0-5.361777-19.399111zM327.822222 699.349333a14.222222 14.222222 0 0 0 10.140445-24.177777 198.684444 198.684444 0 0 1-57.287111-140.017778 14.222222 14.222222 0 1 0-28.444445 0c0 60.202667 23.239111 116.992 65.450667 159.943111a14.222222 14.222222 0 0 0 10.140444 4.252444zM382.094222 709.077333c-4.010667-2.304-7.936-4.693333-11.776-7.253333a14.222222 14.222222 0 1 0-15.772444 23.665778c4.394667 2.944 8.903111 5.688889 13.496889 8.305778a14.179556 14.179556 0 0 0 19.399111-5.333334 14.222222 14.222222 0 0 0-5.347556-19.384889zM401.251556 626.076444a86.343111 86.343111 0 0 1-43.733334-74.993777 14.222222 14.222222 0 1 0-28.444444 0 114.986667 114.986667 0 0 0 58.154666 99.783111 14.193778 14.193778 0 0 0 19.370667-5.390222 14.250667 14.250667 0 0 0-5.347555-19.399112zM711.466667 217.073778a14.222222 14.222222 0 0 0-16.810667 22.912c92.188444 67.697778 141.155556 180.437333 127.744 294.229333a14.222222 14.222222 0 0 0 28.231111 3.328c14.620444-123.932444-38.712889-246.727111-139.164444-320.469333z" p-id="7813"></path><path d="M678.670222 300.899556a14.250667 14.250667 0 0 0-19.882666 3.043555 14.236444 14.236444 0 0 0 3.072 19.868445 200.334222 200.334222 0 0 1 80.170666 184.661333 14.208 14.208 0 0 0 28.231111 3.342222 228.864 228.864 0 0 0-91.591111-210.915555zM646.044444 372.238222a14.222222 14.222222 0 0 0-16.810666 22.912 86.414222 86.414222 0 0 1 34.588444 79.658667 14.222222 14.222222 0 1 0 28.231111 3.328 114.944 114.944 0 0 0-46.008889-105.898667z" p-id="7814"></path></svg>