<?xml version="1.0" encoding="UTF-8" standalone="no"?><!DOCTYPE svg PUBLIC "-//W3C//DTD SVG 1.1//EN" "http://www.w3.org/Graphics/SVG/1.1/DTD/svg11.dtd"><svg width="100%" height="100%" viewBox="0 0 65 65" version="1.1" xmlns="http://www.w3.org/2000/svg" xmlns:xlink="http://www.w3.org/1999/xlink" xml:space="preserve" xmlns:serif="http://www.serif.com/" style="fill-rule:evenodd;clip-rule:evenodd;stroke-linejoin:round;stroke-miterlimit:1.41421;"><rect id="Layer" x="0.656" y="0.063" width="64" height="64" style="fill:none;"/><g><path d="M54.227,41.284l6.19,3.488c2.288,1.289 2.001,3.544 -0.641,5.032l-22.334,12.585c-2.642,1.489 -6.643,1.65 -8.931,0.361l-23.617,-13.307c-2.287,-1.289 -2,-3.544 0.641,-5.032l5.55,-3.127l17.426,9.819c2.288,1.289 6.289,1.127 8.931,-0.361l16.785,-9.458Z"/><path d="M52.364,26.353l8.114,4.571c2.287,1.289 2,3.544 -0.642,5.033l-22.334,12.584c-2.641,1.489 -6.643,1.651 -8.931,0.362l-23.617,-13.308c-2.287,-1.289 -2,-3.544 0.642,-5.032l7.472,-4.21l15.503,8.735c2.288,1.289 6.29,1.127 8.931,-0.361l14.862,-8.374Z"/><path d="M27.946,2.274c2.599,-1.464 6.515,-1.636 8.738,-0.383l23.342,13.152c2.224,1.253 1.918,3.459 -0.681,4.924l-21.979,12.384c-2.6,1.465 -6.515,1.637 -8.739,0.384l-23.342,-13.152c-2.223,-1.253 -1.918,-3.459 0.682,-4.924l21.979,-12.385Z"/></g></svg>