<?xml version="1.0" standalone="no"?><!DOCTYPE svg PUBLIC "-//W3C//DTD SVG 1.1//EN" "http://www.w3.org/Graphics/SVG/1.1/DTD/svg11.dtd"><svg t="1542022523510" class="icon" style="" viewBox="0 0 1024 1024" version="1.1" xmlns="http://www.w3.org/2000/svg" p-id="1913" xmlns:xlink="http://www.w3.org/1999/xlink" width="64" height="64"><defs><style type="text/css"></style></defs><path d="M512 832c-25.152 0-50.112 10.368-67.904 28.096C426.368 877.888 416 902.848 416 928c0 25.152 10.368 50.112 28.096 67.904C461.888 1013.632 486.848 1024 512 1024c25.152 0 50.112-10.368 67.904-28.096C597.632 978.112 608 953.152 608 928c0-25.152-10.368-50.112-28.096-67.904C562.112 842.368 537.152 832 512 832L512 832zM512 832" p-id="1914"></path><path d="M512 416c-25.152 0-50.112 10.368-67.904 28.096C426.368 461.888 416 486.848 416 512c0 25.152 10.368 50.112 28.096 67.904C461.888 597.632 486.848 608 512 608c25.152 0 50.112-10.368 67.904-28.096C597.632 562.112 608 537.152 608 512c0-25.152-10.368-50.112-28.096-67.904C562.112 426.368 537.152 416 512 416L512 416zM512 416" p-id="1915"></path><path d="M512 0C486.848 0 461.888 10.368 444.096 28.096 426.368 45.888 416 70.848 416 96c0 25.152 10.368 50.112 28.096 67.904C461.888 181.632 486.848 192 512 192c25.152 0 50.112-10.368 67.904-28.096C597.632 146.112 608 121.152 608 96c0-25.152-10.368-50.112-28.096-67.904C562.112 10.368 537.152 0 512 0L512 0zM512 0" p-id="1916"></path></svg>