<?xml version="1.0" standalone="no"?><!DOCTYPE svg PUBLIC "-//W3C//DTD SVG 1.1//EN" "http://www.w3.org/Graphics/SVG/1.1/DTD/svg11.dtd"><svg t="1542944824788" class="icon" style="" viewBox="0 0 1028 1024" version="1.1" xmlns="http://www.w3.org/2000/svg" p-id="4335" xmlns:xlink="http://www.w3.org/1999/xlink" width="64.25" height="64"><defs><style type="text/css"></style></defs><path d="M514.33152 1023.296c-132.928 0-265.088-50.976-363.36-149.248C-37.31648 685.76-51.10848 389.6 118.81152 185.12l49.248 40.864C19.38752 404.928 31.45152 664.032 196.18752 828.768c147.2 147.232 381.312 173.152 556.672 61.728l34.304 54.016a508.384 508.384 0 0 1-272.832 78.784z" fill="" p-id="4336"></path><path d="M194.01152 352H130.01152V224H2.01152V160h192zM909.17952 838.88l-49.184-40.928c148.672-178.88 136.608-438.016-28.16-602.72-147.232-147.2-381.28-173.12-556.672-61.728L240.85952 79.488C441.30752-47.84 708.89152-18.208 877.08352 149.952c188.256 188.288 202.048 484.448 32.096 688.928z" fill="" p-id="4337"></path><path d="M1026.01152 864h-192v-192h64v128h128z" fill="" p-id="4338"></path></svg>