<?xml version="1.0" standalone="no"?><!DOCTYPE svg PUBLIC "-//W3C//DTD SVG 1.1//EN" "http://www.w3.org/Graphics/SVG/1.1/DTD/svg11.dtd"><svg t="1542280982007" class="icon" style="" viewBox="0 0 1024 1024" version="1.1" xmlns="http://www.w3.org/2000/svg" p-id="1181" xmlns:xlink="http://www.w3.org/1999/xlink" width="64" height="64"><defs><style type="text/css"></style></defs><path d="M533.303 944.773L850.4 625.82s28.68-24.462 28.677-59.529v-196.3l-38.6 22.149v105.766s2.124 36.445-43.017 78.355c-41.36 40.697-315.544 316.463-315.544 316.463l51.387 52.05z m89.545-586.81S685.972 83.025 811.45 79.113c124.025-3.865 150.595 91.212 147.428 150.933-3.772 71.164-73.732 124.55-118.401 132.857 0-35.81 0.2-50.35 0.2-50.35s73.065-19.653 73.347-84.167c0.214-49.865-27.298-114.612-102.574-106.325C722.6 131.85 659.242 382.88 659.242 382.88l-13.236 13.29-23.163-38.208h0.005v0.001z m130.96-142.47h34.83v272.442c0.838 23.155-26.468 51.495-26.468 51.495L358.49 941.45 64 642.427s359.01-358.823 398.718-398.694c28.124-28.24 46.32-28.24 46.32-28.24h210.58l-48.18 122.373 5.163 23.706c2.02 9.267 1.266 25.176 1.266 25.176-4.91 20.396-23.197 35.552-45.02 35.552-25.587 0-47.432-21.935-47.432-47.626 0-13.123 14.525-40.242 36.755-44.745l13.617-44.78c-59.563 12.182-91.181 50.467-91.181 90.635 0 49.34 39.837 89.342 88.976 89.342 49.14 0 88.975-40.001 88.975-89.342-1.103-17.537-2.755-20.86-8.621-38.965-4.799-15.951 23.912-84.888 23.912-84.888l15.96-36.438z" p-id="1182"></path></svg>